<?xml version="1.0" encoding="UTF-8" standalone="no"?>
<!-- Created with Inkscape (http://www.inkscape.org/) -->

<svg
   width="500"
   height="500"
   viewBox="0 0 500 500"
   version="1.1"
   id="svg1084"
   inkscape:version="1.1.1 (3bf5ae0d25, 2021-09-20)"
   sodipodi:docname="companieshouse.svg"
   xmlns:inkscape="http://www.inkscape.org/namespaces/inkscape"
   xmlns:sodipodi="http://sodipodi.sourceforge.net/DTD/sodipodi-0.dtd"
   xmlns="http://www.w3.org/2000/svg"
   xmlns:svg="http://www.w3.org/2000/svg">
  <sodipodi:namedview
     id="namedview1086"
     pagecolor="#ffffff"
     bordercolor="#666666"
     borderopacity="1.0"
     inkscape:pageshadow="2"
     inkscape:pageopacity="0.0"
     inkscape:pagecheckerboard="true"
     inkscape:document-units="px"
     showgrid="false"
     units="px"
     viewbox-x="0"
     inkscape:zoom="0.49887767"
     inkscape:cx="-33.074241"
     inkscape:cy="336.75591"
     inkscape:window-width="1366"
     inkscape:window-height="746"
     inkscape:window-x="-8"
     inkscape:window-y="-8"
     inkscape:window-maximized="1"
     inkscape:current-layer="layer1" />
  <defs
     id="defs1081" />
  <g
     inkscape:label="Layer 1"
     inkscape:groupmode="layer"
     id="layer1">
    <g
       id="g4828"
       transform="matrix(18.516968,0,0,18.516968,-194.70146,-144.96035)">
      <circle
         style="fill:#ffffff;fill-opacity:1;stroke:#070707;stroke-width:0.651849;stroke-dasharray:none;stroke-opacity:1"
         id="path1370"
         cx="24.01589"
         cy="21.329645"
         r="13.175206" />
      <path
         style="fill:#070707;stroke:none;stroke-width:0.0237353"
         d="m 23.775989,11.000616 0.142412,0.261088 -0.284824,-0.142411 0.02374,0.356024 0.261088,-0.142405 -0.142411,0.261088 h 0.379764 v -0.02374 l -0.166147,-0.237359 0.237353,0.166145 h 0.02374 l 0.02374,-0.379764 -0.284823,0.142417 0.142412,-0.261094 h -0.356027 m 2.990646,0.284822 0.384511,0.52218 0.825988,1.044351 c -0.275804,0.04752 -0.461817,0.275223 -0.688323,0.427261 -0.08915,0.05983 -0.226743,0.134835 -0.266263,0.241361 -0.03041,0.08203 0.01246,0.198117 0.02892,0.280786 0.174383,-0.06435 0.327951,-0.203502 0.522176,-0.166145 l -0.379764,0.284823 h 0.09494 c 0.03461,0.102941 0.100329,0.07446 0.189883,0.04747 l -0.04747,0.213619 c 0.199755,-0.04063 0.201465,-0.216466 0.261088,-0.37977 h 0.02374 v 0.189885 c 0.105646,-0.06164 0.113217,-0.269898 0.217035,-0.295788 0.07446,-0.01856 0.160071,0.06462 0.233935,0.07683 0.254086,0.04185 0.477364,-0.169563 0.403499,-0.421896 0.3294,0.340861 -0.288858,0.634421 -0.522175,0.773864 -0.07372,0.04413 -0.153591,0.121978 -0.237353,0.143106 -0.08692,0.0219 -0.19978,-0.04285 -0.284823,-0.06247 -0.04455,0.192548 -0.09689,0.423797 -0.178561,0.60345 -0.101706,0.223658 -0.260614,0.396189 -0.27241,0.654525 -0.190524,-0.130377 -0.136478,-0.279908 -0.268541,-0.421824 -0.109372,-0.117515 -0.193917,-0.0063 -0.31117,-0.0423 -0.107544,-0.03279 -0.181432,-0.152161 -0.27476,-0.209957 -0.20754,-0.128548 -0.381568,0.04913 -0.54591,0.151905 0.104245,0.268091 0.213048,0.04608 0.379408,0.135552 0.186203,0.10019 0.38793,0.422987 0.498797,0.600243 -0.12537,0.0099 -0.392653,-0.02407 -0.494312,0.04018 -0.238562,0.150715 -0.06499,0.379292 0.03328,0.553196 0.09834,0.1741 0.163964,0.415088 0.307443,0.557021 0.131612,0.130161 0.389045,0.218983 0.557091,0.297451 l 0.02374,-0.118671 -0.261088,-0.118678 v -0.02374 l 0.356029,0.09494 c -0.130639,-0.311735 -0.251499,-0.340433 -0.545911,-0.261092 0.08409,-0.318762 -0.325505,-0.358304 -0.302578,-0.663186 0.0062,-0.08248 0.09568,-0.09272 0.160166,-0.08547 0.233247,0.02629 0.452133,0.06031 0.688323,0.06031 l 0.02374,0.21362 h -0.02374 c -0.110678,-0.225015 -0.568317,-0.21651 -0.488044,0.09492 0.08699,0.337376 0.531172,0.242311 0.51178,-0.09492 h 0.02374 c 0.08569,0.571711 0.833274,0.509313 1.091823,0.973147 -0.478076,0 -1.148977,0.119533 -1.036544,0.759529 0.03987,0.227054 0.457284,0.462223 0.204409,0.679066 -0.493599,0.42327 -1.301239,0.07405 -1.636334,0.792518 0.180175,-0.0055 0.243239,-0.138254 0.356029,-0.261082 l -0.118676,0.284821 c 0.258335,-2.2e-5 0.53129,-0.04013 0.403499,-0.356035 0.137451,-0.01746 0.185919,0.106976 0.309484,0.110778 0.269847,0.0083 0.653362,-0.24618 0.901016,-0.348388 0.08751,-0.03613 0.228594,-0.07004 0.293771,-0.141415 0.07465,-0.08172 -0.09387,-0.274712 -0.09762,-0.380498 -0.01137,-0.321302 0.264388,-0.33602 0.492175,-0.403499 0,0.429512 0.217011,0.737573 0.593382,0.952426 0.122379,0.06985 0.401957,0.08554 0.462505,0.212002 0.102134,0.213258 0.09088,0.700883 -0.03869,0.899588 -0.157532,0.241551 -0.406206,0.363579 -0.495023,0.665543 0.17735,-0.01373 0.224179,-0.210373 0.284823,-0.356036 h 0.02374 l -0.09494,0.403499 c 0.151099,-0.0124 0.414774,-0.07778 0.440835,-0.261105 0.01054,-0.07408 -0.0797,-0.161614 -0.03957,-0.228743 0.04645,-0.07766 0.146423,0.0085 0.210508,-0.01579 0.140988,-0.05336 0.108566,-0.335448 0.07655,-0.443797 0.06169,0.03096 0.119888,0.06213 0.189883,0.06853 0.49348,0.04503 0.334834,-0.705207 -0.0698,-0.409196 -0.04854,0.03546 -0.0713,0.0746 -0.09634,0.127025 h -0.02374 l -0.04748,-0.783245 c -0.218911,0.06045 -0.418453,-0.05587 -0.433003,-0.308556 -0.01386,-0.24075 0.161733,-0.589204 0.219385,-0.830743 h 0.04747 c 0.0375,0.130194 0.121904,0.231829 0.169969,0.356036 0.06119,0.158052 0.0469,0.298468 0.187082,0.421892 0.118558,0.104391 0.348291,0.153733 0.449949,0.0055 -0.13802,-0.02785 -0.216323,-0.118911 -0.284823,-0.237354 0.286675,0.02935 0.512113,0.156541 0.664588,-0.189879 l -0.261089,0.09494 c 0.67076,-0.789527 -0.521678,-1.301787 -0.799309,-1.898817 -0.182476,-0.392421 0.05217,-0.845311 0.514487,-0.759534 -0.03909,0.07653 -0.08001,0.150632 -0.09053,0.237353 -0.07814,0.644532 0.790076,0.588237 1.063673,0.973148 h 0.02374 c -0.0202,-0.440911 -0.621082,-0.431334 -0.688324,-0.878205 h 0.02374 c 0.04441,0.220123 0.240463,0.330417 0.450971,0.332296 -0.05106,-0.07579 -0.126224,-0.125747 -0.16299,-0.213647 -0.06525,-0.156035 -0.03684,-0.373161 -0.195531,-0.478047 -0.07232,-0.0478 -0.156084,-0.03269 -0.23486,-0.05739 -0.155277,-0.04858 -0.254158,-0.122568 -0.427236,-0.101023 -0.420304,0.05242 -0.559179,0.490164 -0.487428,0.850085 0.113906,0.571523 0.758936,0.773914 0.977846,1.281704 0.118986,0.27599 -0.05324,0.851432 -0.442852,0.616901 -0.319478,-0.192324 -0.468298,-0.714855 -0.712154,-0.996665 0.05471,0.01301 0.109372,0.02701 0.166171,0.01795 0.64897,-0.103147 -0.470243,-0.895131 -0.308583,-0.231578 -0.181931,-0.166274 -0.476083,-0.542503 -0.417883,-0.807003 0.02763,-0.125514 0.129476,-0.217561 0.18053,-0.332296 0.164771,0.0028 0.384844,-0.285467 0.450971,-0.427233 -0.09038,-0.08609 -0.07121,-0.152978 -0.02374,-0.261088 0.03978,0.100446 0.08685,0.154462 0.189883,0.189874 v -0.712049 h 0.02374 c 0.05981,0.109328 0.13821,0.153466 0.261087,0.166139 l -0.213617,-0.949402 0.189883,-0.02374 c -0.214298,-0.17546 -0.320536,-0.469247 -0.617109,-0.522157 v -0.02374 c 0.09333,-0.01929 0.133843,-0.05253 0.166146,-0.142411 l -0.652796,-0.204174 -0.36785,-0.365435 V 12.66222 C 27.89345,12.402611 27.560943,12.008639 27.24137,11.689072 27.105415,11.553104 26.956476,11.338851 26.766664,11.285568 m -7.286731,0.284833 0.09494,0.142406 h -0.118675 l 0.04747,0.142416 0.07121,-0.09494 h 0.02374 c 4.7e-5,0.07523 -0.01678,0.187805 0.04134,0.246747 0.08856,0.08978 0.204337,-0.0179 0.1478,-0.121278 -0.03159,-0.05781 -0.09508,-0.10407 -0.141676,-0.14921 h 0.142412 l -0.04747,-0.118676 -0.118676,0.07121 v -0.142411 l -0.142411,0.02374 m 0.597512,0.0011 c -0.08022,0.01456 -0.06606,0.14111 0.01868,0.129927 0.08616,-0.01134 0.06418,-0.144956 -0.01868,-0.129927 m 0.199827,0.04808 c -0.06537,0.0458 -0.003,0.162337 0.07,0.114608 0.07152,-0.0468 6.11e-4,-0.164111 -0.07,-0.114608 m 3.3326,0.306527 h 0.261088 v -0.284827 c -0.147657,0.04391 -0.233437,0.132206 -0.261088,0.284827 m 0.4035,-0.284827 c 0,0.247825 0.037,0.284827 0.284823,0.284827 -0.029,-0.160152 -0.124705,-0.25585 -0.284823,-0.284854 m -4.125216,0.07051 c -0.08462,0.02329 -0.04408,0.149081 0.03802,0.125285 0.084,-0.02435 0.04531,-0.148218 -0.03802,-0.125285 m 0.525001,0.07606 c -0.08132,0.04146 0.0026,0.162554 0.07272,0.11249 0.06143,-0.0438 -0.0066,-0.146207 -0.07272,-0.11249 m -1.2105,0.142411 c -0.08132,0.04146 0.0026,0.162555 0.07272,0.112491 0.06143,-0.04386 -0.0066,-0.146202 -0.07272,-0.112491 m 0.214282,-0.0022 c -0.07671,0.0468 0.0039,0.153267 0.07576,0.109895 0.07631,-0.04608 -0.0027,-0.15449 -0.07576,-0.109895 m 0.703846,-0.02574 0.02374,0.237353 -0.07121,0.118672 0.09494,-0.04747 c 0.01747,0.207794 -0.161969,0.201474 -0.284823,0.09494 l 0.166147,0.02374 -0.04747,-0.166151 -0.142412,0.09494 0.04747,-0.142405 -0.213617,0.0712 0.118676,0.118677 -0.142411,-0.02374 0.07121,0.166146 h 0.02374 l 0.09494,-0.118677 c -0.01175,0.155334 -0.198069,0.302358 -0.261087,0.09494 l 0.07121,0.02379 c -0.04085,-0.0723 -0.06608,-0.07775 -0.142412,-0.04747 -0.01163,-0.103497 -0.04327,-0.154217 -0.142411,-0.18988 0.003,0.09203 0.01191,0.144117 0.09494,0.18988 l -0.02374,0.166145 0.04747,-0.0712 c 0.0934,0.163227 -0.06703,0.14917 -0.166148,0.0712 l 0.09494,0.02374 -0.09494,-0.142405 h -0.02374 v 0.09494 h -0.02374 l -0.02374,-0.09494 -0.09494,0.09494 0.284823,0.284821 0.712059,-0.316443 0.307894,-0.122968 0.04813,-0.415055 H 20.40559 l 0.02374,0.118672 h -0.02374 l -0.02374,-0.0712 h -0.02374 v 0.18988 h 0.02374 l 0.02374,-0.0712 h 0.02374 c -0.03574,0.214197 -0.220383,0.09599 -0.09494,0.0712 l -0.02374,-0.09494 -0.09494,0.02374 c 0.01443,-0.110178 -0.0076,-0.167907 -0.09494,-0.237359 m 2.614275,0.137692 c -0.120765,0.04313 -0.0624,0.239671 0.06441,0.198139 0.121573,-0.0398 0.06313,-0.243706 -0.06441,-0.198139 m 2.351882,0.0063 c -0.122688,0.06727 -0.01234,0.252928 0.102917,0.182881 0.110511,-0.06714 0.01498,-0.247524 -0.102917,-0.182881 m -2.044225,0.0194 c -0.136099,0.03569 -0.06577,0.244718 0.06337,0.19721 0.115899,-0.04263 0.05477,-0.22817 -0.06337,-0.19721 m 1.75736,0.0055 c -0.123209,0.05795 -0.03594,0.25245 0.08609,0.184943 0.11101,-0.06143 0.03014,-0.239576 -0.08609,-0.184943 m -1.190205,-0.0033 c 0.106025,0.356758 0.582369,0.356491 0.688323,0 h -0.688323 m -4.542507,0.04952 c -0.06143,0.04385 0.0066,0.146196 0.07272,0.112485 0.08132,-0.04146 -0.0026,-0.162555 -0.07272,-0.112485 m 3.36329,0.02284 c -0.105574,0.06532 -0.0049,0.231684 0.104435,0.178641 0.123091,-0.05976 0.01009,-0.249554 -0.104435,-0.178641 m 2.941371,0 c -0.119673,0.06962 -0.008,0.250616 0.105385,0.168913 0.101943,-0.07345 0.006,-0.233746 -0.105385,-0.168913 m -2.084052,0.02335 c -0.112862,0.07637 0.01441,0.236403 0.124467,0.164605 0.116066,-0.07569 -0.01567,-0.238243 -0.124467,-0.164605 m 1.20765,0 c -0.116065,0.07569 0.01567,0.238249 0.124469,0.164605 0.112861,-0.07636 -0.01441,-0.236391 -0.124469,-0.164605 m -0.92774,0.119027 c -0.109776,0.06289 -0.03093,0.240332 0.08604,0.185527 0.12575,-0.05893 0.04047,-0.257958 -0.08604,-0.185527 m 0.666653,0 c -0.105291,0.06526 -0.005,0.240466 0.105646,0.183126 0.125321,-0.0649 0.0098,-0.254623 -0.105646,-0.183126 m -5.126821,0.05052 c -0.07121,0.03641 -0.01496,0.146681 0.05611,0.110362 0.07121,-0.03641 0.01496,-0.146674 -0.05611,-0.110362 m 3.109297,-0.0028 c -0.108991,0.06435 -0.01431,0.253056 0.100876,0.182887 0.109087,-0.06643 0.01434,-0.250889 -0.100876,-0.182887 m 3.390017,-0.0063 c -0.118986,0.04258 -0.05853,0.239105 0.06466,0.198145 0.121239,-0.04035 0.06273,-0.243734 -0.06466,-0.198145 m -5.035275,0.05219 c -0.02317,0.141966 -0.139136,0.14833 -0.261088,0.182992 -0.255534,0.07263 -0.478314,0.182492 -0.711963,0.306472 -0.122712,0.06511 -0.300156,-0.01195 -0.261184,0.198856 -0.288479,0.056 -0.462743,0.284322 -0.09494,0.427238 l -0.237352,0.759524 c 0.292394,-0.03257 0.259379,-0.347031 0.45097,-0.498441 l -0.209488,0.617117 0.01961,0.617118 c 0.259166,-0.188128 0.242148,-0.599098 0.356029,-0.8782 h 0.02374 c -9.23e-4,0.337888 -0.06024,0.797187 -0.166147,1.115548 0.205928,-0.08084 0.29897,-0.280659 0.379764,-0.474701 h 0.02374 c -0.214519,0.927313 -0.674366,1.712166 -1.202691,2.492211 -0.175759,0.25952 -0.727557,0.764681 -0.890998,0.189879 -0.0583,-0.205026 0.07358,-0.433141 0.188838,-0.593383 0.270771,-0.376441 0.670212,-0.643748 0.9121,-1.044351 0.151288,-0.250527 0.236806,-0.647472 -0.032,-0.854732 -0.252329,-0.194577 -0.426428,-0.02023 -0.67413,0.03735 -0.180625,0.04202 -0.284609,-0.03485 -0.41831,0.152905 -0.145426,0.204193 -0.141747,0.538145 -0.422488,0.617002 v 0.02374 c 0.223064,0.04764 0.409101,-0.131472 0.545911,-0.284821 -0.131493,0.442656 -0.736885,0.430223 -0.759528,0.949408 h 0.02374 c 0.227361,-0.393083 0.742037,-0.396568 1.067732,-0.672402 0.204195,-0.172882 0.296074,-0.458699 0.119033,-0.680505 0.0895,-0.02396 0.190405,-0.07562 0.284823,-0.05547 0.319928,0.06832 0.239965,0.451429 0.12041,0.648857 -0.39168,0.64686 -1.405984,1.134307 -1.046086,2.017498 l -0.237395,-0.07051 c 0.06368,0.315371 0.356171,0.242245 0.593382,0.237359 -0.07007,0.128882 -0.184305,0.198306 -0.332294,0.18988 0.14545,0.157384 0.428303,0.107548 0.593359,5.55e-4 0.14469,-0.09363 0.15772,-0.22154 0.251237,-0.346697 0.177706,-0.237826 0.379243,-0.449189 0.508315,-0.722127 h 0.02374 c -0.08203,0.282882 -0.261112,0.524571 -0.345634,0.807003 -0.07932,0.265128 -0.06513,0.564642 -0.211646,0.806997 -0.06437,0.106476 -0.166718,0.218038 -0.29719,0.234652 -0.06748,0.0086 -0.163727,-0.04169 -0.222946,0.0033 -0.06223,0.04764 -0.01587,0.168946 -0.04111,0.236352 -0.04396,0.117437 -0.127933,0.204526 -0.152072,0.332296 -0.03379,0.178769 0.03269,0.345058 0.03636,0.52217 0.127293,-0.06081 0.189313,-0.172248 0.213618,-0.308562 h 0.02374 v 0.7358 c 0.04154,-0.03708 0.218271,-0.200707 0.243525,-0.05425 0.02862,0.165934 -0.195746,0.34756 0.112505,0.410319 0.01158,-0.262984 0.349265,-0.06943 0.498441,-0.102847 0.08008,-0.01795 0.132206,-0.102418 0.212218,-0.112701 0.06537,-0.0084 0.08158,0.04841 0.09634,0.09687 0.172651,-0.09231 0.157295,-0.210345 0.118678,-0.379764 0.102892,0.0115 0.159666,0.04069 0.189882,0.142405 0.295243,-0.154945 -0.0464,-0.353418 -0.213618,-0.410074 -0.209749,-0.07106 -0.345585,0.18386 -0.522176,0.110612 -0.27832,-0.115425 -0.475845,-0.686903 -0.274879,-0.932561 0.152832,-0.186801 0.433692,-0.225675 0.630908,-0.350995 0.495331,-0.314781 0.831209,-0.878705 0.688324,-1.478826 0.244639,0.141794 0.428778,0.490932 0.260968,0.759168 -0.04731,0.07558 -0.227241,0.140682 -0.239108,0.2205 -0.01099,0.07389 0.083,0.145902 0.113122,0.207094 0.10669,0.216843 0.1234,0.393104 0.339723,0.545904 v -0.308556 h 0.02374 c 0.104555,0.231489 0.126296,0.518813 0.427235,0.545915 -0.01317,-0.0373 -0.05319,-0.135724 0.01761,-0.14787 0.08837,-0.01517 0.172674,0.157169 0.244403,0.194677 0.181788,0.09504 0.506415,-0.156513 0.450044,0.166812 0.153068,-0.0803 0.244117,-0.536638 0.4035,-0.213619 0.195269,-0.133912 -0.03627,-0.399563 -0.192018,-0.460394 -0.181172,-0.07078 -0.297713,0.08556 -0.458899,0.08006 -0.258904,-0.0088 -0.66943,-0.375085 -0.733539,-0.616545 -0.06057,-0.22826 0.351259,-0.387341 0.44245,-0.569644 0.217676,-0.435237 -0.417718,-0.805158 -0.719464,-0.973154 v -0.02374 c 0.281572,-0.143862 0.709471,0.02284 0.807,-0.308556 h 0.02374 l 0.02374,0.35603 0.189883,-0.213625 h 0.02374 l 0.02374,0.356036 c 0.04661,-0.04925 0.235193,-0.173194 0.195769,1.16e-4 -0.0221,0.09722 -0.140774,0.136553 -0.160356,0.237593 -0.01559,0.08053 0.07249,0.155918 0.03874,0.230634 -0.02279,0.05052 -0.07512,0.05291 -0.12162,0.05386 0.108708,0.207133 0.296099,0.0858 0.427236,-0.02374 l -0.09494,0.237348 v 0.02374 c 0.19133,-0.0022 0.275994,-0.09466 0.284824,-0.284822 0.114404,0.06981 0.131944,0.13135 0.118676,0.261082 0.292846,-0.129966 0.130947,-0.443564 0.02146,-0.664586 -0.06349,-0.128193 -0.04531,-0.275234 -0.114403,-0.403499 -0.185112,-0.343713 -0.558016,-0.673941 -0.832729,-0.949414 l 0.474706,0.37977 0.664587,-1.020616 -0.308558,0.118676 c -0.0031,-0.146996 -0.06886,-0.235763 -0.110441,-0.369703 -0.09511,-0.306444 -0.104293,-0.529324 -0.43547,-0.698387 v -0.02374 c 0.168472,0.07865 0.308131,0.195027 0.49844,0.118672 v -0.02374 l -0.569646,-0.54591 v -0.02374 c 0.168163,0.07944 0.287409,0.184949 0.474705,0.09494 L 21.14137,13.041172 v -0.02374 c 0.136098,0.03235 0.275614,0.03602 0.356029,-0.09494 l -0.379764,-0.09494 c 0.04341,-0.343513 0.0041,-0.502993 -0.35603,-0.35603 l -0.189882,-0.09494 m 3.180529,0.09494 v 0.522175 c 0.218103,-0.01707 0.142411,-0.33478 0.142411,-0.498441 l -0.142411,-0.02374 m 0.261088,0.02374 c 0,0.08194 -0.04871,0.483356 0.0712,0.483356 0.120837,0 0.07121,-0.423148 0.07121,-0.50709 l -0.142411,0.02374 m -1.917218,0.08987 c -0.128123,0.05103 -0.03655,0.245269 0.08609,0.188123 0.123708,-0.05767 0.03795,-0.237542 -0.08609,-0.188123 m 3.631498,0 c -0.127245,0.05074 -0.03674,0.246342 0.08419,0.188123 0.120955,-0.05823 0.04089,-0.237959 -0.08419,-0.188123 m -4.966015,0.17122 c -0.07479,0.23542 -0.221592,0.49768 -0.45097,0.18988 l 0.45097,-0.18988 m 1.289254,0.119794 c -0.10567,0.06554 -0.0028,0.229894 0.10358,0.163911 0.105671,-0.06553 0.0028,-0.229894 -0.10358,-0.163911 m 3.702704,0 c -0.10567,0.06554 -0.0028,0.229894 0.103581,0.163911 0.105668,-0.06553 0.0028,-0.229894 -0.103581,-0.163911 m -2.6659,-0.0011 c -0.09247,0.225447 -0.116706,0.361089 0.07121,0.545915 0.123138,-0.21179 0.131706,-0.380587 -0.07121,-0.545915 m 1.708941,0 c -0.148251,0.19307 -0.171582,0.332207 -0.04747,0.545915 0.171891,-0.169085 0.206901,-0.353456 0.04747,-0.545915 m 3.322939,0.332296 -0.4035,0.09494 c 0.05167,-0.222569 0.255464,-0.320924 0.4035,-0.09494 m -8.14123,-0.118672 c -0.0013,0.371699 -0.208538,0.272599 -0.45097,0.166151 l 0.45097,-0.166151 m 3.702705,0 0.213617,0.308556 -0.284824,-0.166139 v 0.403498 l 0.284824,-0.142416 c -0.06631,0.22328 -0.380832,0.411569 -0.589751,0.227082 -0.03876,-0.03424 -0.09447,-0.176162 0.01015,-0.161449 0.04647,0.0063 0.09041,0.07465 0.128622,0.100518 0.04185,-0.331084 -0.139778,-0.420024 -0.284824,-0.09494 -0.149556,-0.339777 -0.393532,-0.168312 -0.237353,0.142406 h 0.02374 c 0.01819,-0.116731 0.178822,-0.184137 0.158766,-0.03379 -0.04019,0.301219 -0.483891,0.12314 -0.609736,0.03379 l 0.261088,0.02374 -0.09494,-0.332296 h -0.02374 l -0.189882,0.21362 0.07121,-0.356025 -0.308558,0.118677 c 0.115638,0.27495 0.321827,0.508596 0.393601,0.806997 0.05632,0.234102 -0.179912,0.425565 0.128575,0.593384 v 0.02374 c -0.380358,0.180953 -0.673869,0.5827 -0.860262,0.949413 -0.08146,0.16026 -0.217391,0.339528 -0.04167,0.474702 0.08521,-0.100807 0.14412,-0.100473 0.261088,-0.04747 l -0.142412,0.118676 c 0.07251,-0.02985 0.15504,-0.09662 0.237234,-0.0848 0.249411,0.03585 0.0957,0.329073 -0.118558,0.298424 l 0.118678,-0.166146 -0.189883,0.09494 0.308559,0.854472 h 0.02374 v -0.118672 h 1.613999 c -0.09924,0.335754 -0.02374,0.789033 -0.02374,1.139288 0,0.197295 -0.03238,0.427261 0.02374,0.617124 l -0.189882,0.09494 0.545912,0.166145 0.09494,-0.237348 -0.379765,-0.02374 c 0.09924,-0.335759 0.02374,-0.789033 0.02374,-1.139293 0,-0.19729 0.03238,-0.427261 -0.02374,-0.617124 h 1.590264 c -0.08516,0.45871 -0.146636,0.883503 -0.458708,1.257976 -0.178347,0.214024 -0.686258,0.428661 -0.692999,0.733226 -0.0024,0.107288 0.146352,0.126514 0.226031,0.144718 0.21827,0.04986 0.542708,0.152732 0.735794,-0.005 0.554242,-0.453245 0.859075,-1.147313 0.942623,-1.845939 0.0578,-0.4832 -0.116374,-0.918349 -0.681535,-0.759529 l -0.02374,-0.166151 c 0.476011,-0.03891 0.216276,-0.33941 0.166147,-0.617118 -0.156298,0.06575 -0.205667,0.128627 -0.118677,0.284822 l -0.142411,0.07121 -0.142412,-0.332296 c 0.112909,-0.03251 0.492222,-0.154584 0.536323,-0.265173 0.03636,-0.0911 -0.07505,-0.214259 -0.124872,-0.280742 -0.164723,-0.219739 -0.386315,-0.49186 -0.648804,-0.593383 v -0.02374 c 0.31302,-0.149481 0.08431,-0.364523 0.13586,-0.593378 0.06686,-0.296861 0.272696,-0.533214 0.386316,-0.807003 l -0.308558,-0.118676 0.07121,0.356024 -0.166147,-0.213608 h -0.02374 l -0.09494,0.308556 0.237353,-0.02374 c -0.111769,0.142416 -0.538103,0.280108 -0.597394,-5.56e-4 -0.02685,-0.12712 0.137618,-0.133507 0.122688,0.02435 0.107877,-0.06143 0.218793,-0.387146 -2.84e-4,-0.344347 -0.105955,0.02074 -0.147895,0.130539 -0.213333,0.201936 -0.03548,-0.344135 -0.373474,-0.227671 -0.237353,0.09494 0.07479,-0.08677 0.255273,-0.09674 0.15136,0.03813 -0.183877,0.23871 -0.561601,0.01273 -0.626065,-0.204264 l 0.284823,0.142411 v -0.403499 l -0.284823,0.16614 0.237352,-0.284822 -0.569647,-0.02374 m -1.563087,0.05075 c -0.12321,0.05788 -0.03593,0.25245 0.08609,0.184921 0.11101,-0.06143 0.03015,-0.239571 -0.08609,-0.184921 m 3.606814,-0.0055 c -0.136098,0.03569 -0.06577,0.244729 0.06337,0.197211 0.115899,-0.04263 0.05477,-0.228177 -0.06337,-0.197211 m -5.034372,0.263689 c -0.109919,-0.005 -0.203436,0.01467 -0.09494,0.118676 -0.280075,0.182932 -0.0136,0.210513 0.09506,0.359522 0.09444,0.129521 0.08362,0.337826 -0.09518,0.383471 -0.151907,0.0388 -0.278036,-0.132261 -0.28575,-0.26828 -0.01135,-0.200185 0.12423,-0.347037 -0.188838,-0.308562 l 0.02374,-0.14241 -0.142412,0.14241 c -0.177065,-0.237759 0.556189,-0.54681 0.688323,-0.284827 m 0.545912,0.04747 0.09494,0.04747 v 0.02374 l -0.118676,-0.04747 0.02374,-0.02374 m 2.278587,0.718819 c 0.456049,-0.0538 1.004525,-0.03379 1.447853,0.08545 0.169612,0.04563 0.461058,0.348554 0.142054,0.432924 -0.09663,0.02563 -0.221472,-0.07212 -0.308201,-0.107298 -0.199139,-0.08073 -0.404212,-0.124525 -0.617118,-0.149987 -0.294365,-0.03518 -0.619847,-3.56e-4 -0.901941,0.08886 -0.12487,0.03952 -0.323559,0.18884 -0.450614,0.171682 -0.203815,-0.02757 -0.183212,-0.27201 -0.04737,-0.362962 0.205904,-0.137859 0.498536,-0.130711 0.735343,-0.158675 m 4.22488,0.183121 -0.118675,0.09494 0.118675,-0.02374 -0.0712,0.189879 -0.09494,-0.09494 c 0.01595,0.156012 0.138092,0.218765 0.284824,0.213613 l -0.142417,-0.09499 c 0.03971,-0.113029 0.09736,-0.142656 0.213618,-0.118676 0.02328,-0.11507 0.07913,-0.175623 0.189883,-0.21362 l -0.04747,0.308556 c 0.110203,0.03518 0.10199,0.100139 0.04747,0.189885 h -0.02374 c -0.190951,-0.111935 -0.02226,0.258553 0.166146,0.04747 l -0.118676,0.04747 0.09494,-0.237348 h 0.02374 l 0.04747,0.118682 h 0.02374 l -0.02374,-0.189885 0.261087,0.142411 -0.14241,0.118677 0.118676,-0.02374 -0.118676,0.213619 -0.04747,-0.118682 h -0.02374 c 0.0023,0.142672 0.164652,0.322902 0.261089,0.142417 h -0.118661 c 0.02156,-0.138048 0.09891,-0.173789 0.213618,-0.09494 0.04109,-0.11801 0.116327,-0.167952 0.237353,-0.18988 l -0.118677,0.284823 c 0.106501,0.0656 0.09008,0.138353 0,0.213619 l 0.189883,0.09494 v -0.02374 l -0.142412,-0.02374 0.118676,-0.166146 h 0.02374 l 0.02374,0.118672 0.02374,-0.166145 0.166147,0.09494 -0.308559,0.379759 c -0.386481,-0.111551 -0.7671,-0.413537 -1.115558,-0.613555 -0.09513,-0.05458 -0.324984,-0.139159 -0.363221,-0.24872 -0.03952,-0.113196 0.08018,-0.360733 0.125868,-0.466903 l 0.166147,0.09495 m -0.73577,0.158002 c -0.265717,0.08013 -0.238349,0.50938 0.07116,0.42178 0.276634,-0.07833 0.237519,-0.514866 -0.07116,-0.42178 m -3.109346,0.05558 c -0.01261,0.05292 -0.0464,0.455363 0.104459,0.338182 0.07353,-0.05712 0.03796,-0.255601 0.03796,-0.338182 h 0.166147 c -0.03154,0.132494 0.01889,0.334408 -0.06509,0.445558 -0.09456,0.125108 -0.312094,0.08728 -0.381639,-0.04313 -0.05861,-0.109867 -0.02798,-0.281493 -0.02798,-0.402454 h 0.166147 m 0.498441,0.569644 -0.142411,-0.02374 0.09494,-0.522169 c 0.2388,0.02746 0.07892,0.383749 0.04747,0.545909 m 2.634972,-0.531124 c 0.181385,-0.06234 0.169446,0.181603 0.02309,0.231517 -0.180198,0.0615 -0.165316,-0.182675 -0.02309,-0.231517 m -3.418236,0.412442 h 0.118676 c -0.12893,0.283593 -0.739687,0.122545 -0.619301,-0.213586 0.128028,-0.357436 0.65329,-0.150576 0.500625,0.213586 m -3.678969,-0.332285 -0.02374,0.0712 h -0.02374 l 0.04747,-0.0712 m 5.103085,0.332285 h 0.308559 c -0.09219,0.161815 -0.240984,0.476891 -0.45097,0.356036 l 0.166146,-0.21362 -0.142411,0.04747 -0.02374,-0.166145 -0.166147,0.213619 h -0.02374 l -0.09494,-0.0712 0.284823,-0.450972 c 0.115212,0.06455 0.13242,0.15933 0.142412,0.284821 m -1.705523,-0.242418 c -0.134484,0.05175 -0.04716,0.256535 0.08803,0.203908 0.132181,-0.05142 0.0449,-0.255057 -0.08803,-0.203908 m -0.5968,0.171225 0.07121,0.09494 v 0.02374 l -0.09494,0.0712 v 0.02379 l 0.237354,0.237348 v 0.02374 l -0.09494,0.09494 h -0.02374 l -0.427235,-0.261083 0.332294,-0.308561 m 3.939796,0.139259 c 0.145544,0 0.138163,0.277674 -6.12e-4,0.279769 -0.147253,0.0022 -0.148987,-0.279769 6.12e-4,-0.279769 m -2.729297,0.121834 -0.02374,0.949408 0.02374,0.925674 h -1.613999 c 0,-0.907804 0.633898,-1.866961 1.613999,-1.875082 m 1.66147,1.875082 h -1.590264 l 0.02374,-0.949413 -0.02374,-0.925669 c 1.026267,0.02123 1.479492,0.998567 1.590264,1.875082 m 0.02374,-1.780139 c 0.06543,0.183115 -0.127363,0.46936 -0.237351,0.617106 l -0.114595,-0.300174 -0.241435,-0.127053 0.593381,-0.189879 m -3.394146,0.142405 0.07121,-0.118677 c 0.06397,0.02707 0.513751,0.312336 0.32833,0.371678 -0.109324,0.03502 -0.316581,-0.191503 -0.399537,-0.253001 m 1.875089,-0.118677 c -0.0024,0.248298 0.109253,0.589944 -0.04747,0.806998 0.180365,0.191052 0.03048,0.594718 0.04747,0.830737 l 0.118676,0.04747 h 0.02374 c 0.122759,-0.06553 0.359257,-0.08747 0.474705,0 h 0.02374 0.02374 c 0.176685,-0.13384 0.475156,0.06936 0.628629,-0.05141 0.08955,-0.07044 0.02112,-0.194938 -0.0023,-0.280859 -0.0549,-0.201413 -0.297166,-0.570355 -0.246562,-0.759534 l -0.09494,0.02374 C 24.896226,15.626167 24.457906,15.345164 24.10831,15.320334 m -0.284823,0.02374 0.02374,0.02374 -0.02374,-0.02374 m 0,0.332296 v 0.04747 l -0.4035,0.02374 c 0.02362,-0.07914 6.67e-4,-0.257864 -0.125845,-0.165395 -0.05032,0.03679 -0.06973,0.11811 -0.111508,0.165395 l 0.02374,-0.118683 h -0.09494 l -0.02374,0.09494 h 0.04747 l -0.04747,0.04747 v 0.02374 l 0.118677,0.07121 -0.237353,-0.02374 -0.09494,0.0712 0.07121,0.0712 0.569647,-0.142405 v 0.02374 l -0.09494,0.02374 0.04747,0.118677 0.166148,-0.04747 -0.02374,-0.09494 0.166147,0.04747 -0.07121,-0.02374 0.118677,0.09495 c 0.0095,-0.09919 -0.0016,-0.147452 -0.09494,-0.189885 v -0.02374 c 0.327595,-0.05236 -0.166716,-0.189457 -0.213618,-0.237353 l 0.284824,-0.16615 c -0.07683,0.0179 -0.410905,0.117825 -0.275875,0.243478 0.06795,0.06323 0.212692,0.04436 0.299611,0.06505 m 1.566528,1.234235 h -1.210493 v -1.519058 c 0.694375,0.06059 1.183014,0.880702 1.2105,1.519058 m -1.186766,-1.495323 v 1.471583 h 1.16303 c -0.123376,-0.654881 -0.456026,-1.307956 -1.16303,-1.471583 m 0.75953,0.569644 -0.02374,0.09494 0.07121,-0.02374 0.308558,0.735794 -0.04747,0.04747 c -0.143788,0 -0.394599,0.04664 -0.498441,-0.0712 h -0.04747 v 0.04747 l -0.498441,-0.02374 c 0.06048,-0.181408 -0.05262,-0.611354 0.09494,-0.640846 l -0.04747,-0.04747 0.02374,-0.07121 -0.07121,-0.02374 v -0.474702 l 0.04747,-0.04747 c 0.308512,0.05497 0.492009,0.28406 0.688323,0.498441 m 0.450971,-0.498441 -0.02374,0.04747 h 0.04747 l -0.02374,-0.04747 m -3.180528,0.128737 c 0.335285,-0.03135 0.353229,0.5058 0.02374,0.523621 -0.329327,0.01779 -0.340221,-0.49405 -0.02374,-0.523621 m 1.163029,0.01373 -0.09494,0.09494 0.09494,-0.09494 m 1.115557,0.213619 0.09494,-0.02374 -0.07121,0.09494 h 0.118677 l -0.118677,0.142417 -0.142411,-0.284822 h -0.09494 l -0.02374,0.118676 c 0.08507,-0.01417 0.0859,0.0393 0.02374,0.02374 v 0.02374 l 0.237353,0.213618 -0.142411,0.142406 h -0.02374 l -0.07121,-0.04747 -0.02374,0.118671 0.09494,0.04747 0.284823,-0.142417 0.142412,0.118677 v 0.02374 c -0.152239,-0.02796 -0.214282,0.0453 -0.166148,0.189885 l -0.166146,-0.04747 -0.02374,0.09494 0.09494,0.04747 v -0.04747 h 0.213617 c -0.01902,-0.09593 -0.0094,-0.132177 0.07121,-0.189879 0.04671,0.117676 0.110464,0.165739 0.237353,0.142405 l -0.09494,0.07121 0.04747,0.09494 0.118676,0.02374 0.02374,-0.261093 c -0.100732,0.0045 -0.150102,-0.01523 -0.213617,-0.09494 0.291326,0.147758 -0.004,-0.336492 -0.09494,-0.403498 0.009,0.19297 0.132965,0.258336 0.237353,0.403498 -0.340863,-0.09572 -0.18739,-0.376101 -0.320877,-0.591121 -0.067,-0.107927 -0.202058,-0.136358 -0.24877,-0.0022 m -2.31851,-0.04674 c -0.104079,0.06804 -0.0032,0.230067 0.103605,0.164272 0.111319,-0.0686 0.01248,-0.240133 -0.103605,-0.164272 m 1.321629,0.102085 c 0.01834,0 0.0038,0.01184 -0.0079,0.0079 l 0.0079,-0.0079 m -0.712059,0.110773 -0.07121,0.02374 v 0.118682 c 0.07818,0 0.04045,0.04291 0.02374,0.09494 l 0.189882,0.118677 -0.166147,0.02374 -0.02374,-0.07121 -0.09494,0.04747 v 0.02374 0.02374 l 0.07121,0.09494 h 0.02374 v -0.07121 c 0.202722,0.05514 0.565232,-0.18501 0.664588,-0.02374 l -0.118701,-0.04736 v 0.09494 l 0.237352,-0.02374 -0.02374,-0.09494 0.237352,-0.02374 -0.0712,0.0712 0.02374,0.09494 h 0.118676 v -0.189885 h -0.09494 v -0.02374 l 0.118677,-0.04747 c -0.124777,-0.12741 -0.401365,-0.0712 -0.569648,-0.0712 v -0.04747 h 0.569648 v -0.02374 h -0.593383 c 0.06428,0.203503 0.381095,0.07943 0.545911,0.118671 v 0.02374 h -0.664587 c 0.07299,-0.20984 -0.174597,-0.226977 -0.189882,0 l -0.142413,-0.213614 m 0.30856,0.09494 -0.07121,0.04747 v -0.02374 l 0.07121,-0.02374 m 3.635011,0.06191 c 0.156677,-0.06595 0.385153,0.180959 0.184969,0.255724 -0.149533,0.05586 -0.369392,-0.17809 -0.184969,-0.255724 m -3.682482,0.0093 -0.04747,0.04747 v -0.04747 h 0.04747 m 2.990646,0.284822 0.04747,0.09494 -0.04747,-0.09494 m -3.489086,0.04747 v 0.118671 l 0.02374,0.09494 0.213618,0.142416 -0.261088,-0.04747 -0.04747,0.07121 0.0712,0.09494 c 0.08718,-0.05447 0.163157,-0.005 0.261089,-0.01584 0.205452,-0.02284 0.414441,-0.229188 0.593381,-0.07911 l -0.142411,-0.02374 c 0.05734,0.128649 0.141818,0.0884 0.261088,0.0712 l -0.04747,-0.09493 0.261088,-0.02379 -0.118676,0.07121 v 0.02374 l 0.0712,0.07121 h 0.09494 l -0.02374,-0.213619 -0.07121,0.02374 0.118676,-0.07121 v -0.04747 l -0.640853,-0.02374 v -0.04747 l 0.617117,-0.02374 v -0.02374 c -0.209036,0 -0.473092,-0.04475 -0.664587,0.04747 v 0.04747 l 0.640852,0.02374 v 0.04747 h -0.78328 c 0.07273,-0.209062 -0.177278,-0.229289 -0.189882,0 -0.09416,-0.05607 -0.134033,-0.102919 -0.142412,-0.21362 h -0.02374 -0.07121 m 0.332295,0.0712 -0.02374,0.02374 0.02374,-0.02374 m 0.07121,0.02374 -0.02374,0.02374 0.02374,-0.02374 m 6.26965,0.01467 c 0.153165,-0.06157 0.348079,0.207094 0.179723,0.279175 -0.152498,0.06533 -0.351732,-0.210028 -0.179723,-0.279175 m -6.317121,0.0091 -0.02374,0.09495 h -0.02374 l 0.04747,-0.09495 m 3.322941,0.403498 c 0,0.08954 0.01616,0.203325 -0.04134,0.279419 -0.123257,0.163017 -0.279793,0.01101 -0.290947,-0.137002 h -0.189883 v -0.166145 l 0.522177,0.02374 m -0.189883,0.142417 v 0.04747 h 0.04747 v -0.04747 h -0.04747 m -1.946294,0.04747 v 0.118676 l 0.07121,0.0712 -0.07121,-0.02374 v 0.02374 l 0.261089,0.142417 -0.284823,0.04747 v 0.02374 l 0.07121,0.0712 0.759529,-0.166145 0.04747,0.09494 -0.09494,-0.04747 -0.02374,0.118677 0.04747,0.02374 h 0.02374 l 0.166146,-0.0712 -0.02374,-0.09494 h 0.237353 v 0.04747 h -0.09494 l 0.04747,0.09494 0.09494,0.02374 0.02374,-0.189885 -0.142412,-0.02379 v -0.02374 l 0.142412,-0.02374 v -0.0712 l -0.640853,-0.04747 0.545911,-0.02374 v -0.02374 l -0.593382,0.02374 c 0.10669,0.193509 0.459112,0.0498 0.640852,0.118671 l -0.783263,0.02374 c 0.0461,-0.138687 -5.56e-4,-0.197817 -0.142412,-0.213619 l -0.02374,0.189874 c -0.116896,-0.03329 -0.144809,-0.09964 -0.166148,-0.213614 h -0.09494 m -1.471587,0.118671 c -0.100994,-0.06344 -0.145355,0.07377 -0.02374,0.07121 -0.03489,0.307511 0.108589,0.683173 0.334263,0.89667 0.171821,0.162544 0.361703,0.157891 0.543277,0.259759 0.03957,0.02218 0.09181,0.09976 0.02307,0.123941 -0.06907,0.02435 -0.0053,-0.07927 0.0013,-0.09361 -0.304571,0.02374 0.100448,0.373378 0.142412,0 h 0.07121 v -1.020617 h 0.0712 v -0.09494 h -0.0712 c -0.04254,-0.38071 -0.501575,-0.08488 -0.735794,-0.09589 -0.117798,-0.0055 -0.250834,-0.102991 -0.356029,-0.04652 m 2.658351,-0.0712 v 0.02374 h 0.07121 l -0.07121,-0.02374 m -0.783264,0.0712 v 0.02379 l -0.04747,0.0712 H 24.4405 24.41676 l 0.02374,-0.09495 h 0.07121 m -0.901942,0.118688 c -0.06487,0.03807 -0.0728,0.0608 -0.02374,0.118671 L 23.562288,17.812664 23.3012,17.45664 c 0.100756,-0.04708 0.259641,-0.145929 0.308559,0 m 2.610881,0.04747 -0.04747,0.332296 -0.166146,-0.02379 0.04747,-0.189879 -0.07121,0.16615 -0.142412,-0.02374 0.02374,-0.166151 -0.07121,0.166151 -0.14241,-0.02379 0.04747,-0.332296 0.522177,0.09494 m 2.943175,-0.05954 c 0.203886,-0.03946 0.168473,0.275822 -2.61e-4,0.308939 -0.195746,0.0384 -0.167832,-0.276423 2.61e-4,-0.308939 m -6.835761,0.05954 c -0.157484,0.218294 -0.485553,0.245074 -0.735795,0.21362 0.168403,0.597869 0.40153,1.022023 0.803512,1.495323 0.09195,0.108283 0.09976,0.254467 0.218127,0.34573 0.138708,0.106955 0.29904,0.0086 0.44995,0.06247 0.686352,0.244846 1.598357,0.566398 2.159911,-0.123352 -0.533261,0 -1.30568,-0.179491 -1.752994,-0.483322 -0.112647,-0.07653 -0.10631,-0.237193 -0.221427,-0.320529 -0.175118,-0.126764 -0.324105,-0.0688 -0.478171,-0.264239 -0.222826,-0.28266 -0.251807,-0.650463 -0.443113,-0.92568 m 1.186764,0.593389 c -0.155016,-0.128126 -0.352777,-0.397851 -0.403501,-0.593389 0.258668,0.0086 0.411096,0.369565 0.403501,0.593389 m -0.593383,-0.569649 c 0.261208,0.099 0.564663,0.554119 0.545912,0.830731 h -0.02374 L 23.046752,17.78885 22.92143,17.527762 m -0.09494,0.04747 0.593383,0.8782 c -0.292585,-0.121856 -0.749584,-0.505111 -0.593383,-0.8782 m 1.519059,0.332285 -0.118676,-0.02374 0.02374,-0.118671 h -0.09494 l -0.02374,0.09494 0.07121,0.02374 -0.04747,0.04747 v 0.02374 c 0.08739,0.01551 0.156795,0.005 0.189883,0.09494 l -0.189883,-0.04747 -0.07121,0.04747 v 0.02379 0.02374 l 0.04747,0.0712 h 0.213618 0.02374 c 0.1309,-0.06268 0.326431,-0.234836 0.427236,-0.0712 l -0.118677,-0.02374 0.07121,0.118671 0.166148,-0.0712 -0.02374,-0.09494 0.237354,-0.02374 -0.09494,0.0712 0.02374,0.09494 h 0.09494 l 0.04747,-0.189879 H 25.05762 v -0.02374 l 0.142412,-0.02374 c -0.05405,-0.162877 -0.333575,-0.06136 -0.474705,-0.09494 v -0.02374 c 0.146446,-0.01334 0.36417,0.06018 0.474705,-0.0712 l -0.522176,0.04747 c 0.08668,0.157219 0.342832,0.08649 0.498441,0.09494 v 0.02374 h -0.640853 c 0.04441,-0.199835 -0.174763,-0.198596 -0.189882,0 M 22.03653,17.779035 c 0.328947,-0.08749 0.474183,0.45453 0.125441,0.537577 -0.329161,0.0784 -0.454436,-0.450066 -0.125441,-0.537577 m 4.089233,0.199685 c -0.06997,0.148419 -0.229639,0.178896 -0.379764,0.213618 v 0.02374 l 0.237353,0.07121 -0.04747,0.142406 -0.474706,-0.18988 c 0.05348,-0.148775 0.205761,-0.165406 0.332294,-0.237348 l -0.213617,-0.07121 0.04747,-0.142411 0.49844,0.189885 m -1.613999,-0.166157 -0.02374,0.02379 0.02374,-0.02379 m -0.04747,0.02379 -0.02374,0.0712 h -0.02374 l 0.04747,-0.0712 m -2.415255,0.119788 c -0.119935,0.06969 -0.01225,0.255041 0.109348,0.187651 0.126106,-0.0699 0.01007,-0.25703 -0.109348,-0.187651 m 6.664892,0.155735 c 0.211362,-0.07935 0.234077,0.241244 0.0461,0.294071 -0.19209,0.05397 -0.200777,-0.235997 -0.0461,-0.294071 m -4.534461,0.104241 -0.04747,0.02374 -0.02374,0.09494 c 0.04875,0 0.07123,0.02135 0.02374,0.04747 v 0.02374 l 0.189882,0.16615 -0.142411,0.02374 -0.02374,-0.07121 c -0.05737,0.06003 -0.05535,0.08998 -0.02374,0.166151 l 0.332294,-0.09494 0.04747,0.118671 0.189882,-0.09494 0.04747,0.04747 c 0.07126,-0.07114 0.106097,-0.11552 0.07121,-0.21362 0.09938,-0.0082 0.18008,-0.01662 0.213618,-0.118676 h -0.356013 v -0.04747 l 0.403499,-0.02374 v -0.02374 c -0.160569,-0.0016 -0.358759,-0.07636 -0.450971,0.09494 l 0.379765,0.02374 v 0.02374 l -0.545911,0.02374 c 0.09126,-0.213235 -0.153639,-0.216865 -0.166147,0.02374 h -0.02374 l -0.09494,-0.213608 m -1.637735,0.142405 -0.142411,0.0712 0.04747,0.142417 0.189882,-0.09494 0.07121,0.142411 -0.427236,0.284828 c -0.06695,-0.116092 -0.0412,-0.16997 0.07121,-0.237353 v -0.02374 l -0.07121,-0.09494 -0.189882,0.09494 -0.07121,-0.09494 c 0.111746,-0.137264 0.389733,-0.400942 0.522176,-0.189891 m 1.922559,-0.0712 -0.02374,0.02374 0.02374,-0.02374 m -0.04747,0.02374 -0.02374,0.07121 h -0.02374 l 0.04747,-0.07121 m 1.186764,0.07121 -0.166146,0.09494 v 0.02374 c 0.08189,-0.01384 0.177397,-0.06129 0.259687,-0.02951 0.205761,0.07946 0.0394,0.394028 -0.188482,0.24309 l 0.142412,-0.118677 c -0.04543,0.02545 -0.08986,0.05303 -0.142531,0.06094 -0.294435,0.04424 -0.221854,-0.464229 0.09506,-0.274538 m -0.806999,0.118671 -0.02374,0.07121 -0.07121,-0.02374 -0.02374,0.0712 h -0.02374 l -0.02374,-0.118677 h 0.166148 m -0.237354,0.02374 0.02374,0.118677 -0.118676,-0.04747 0.09494,-0.0712 m 1.020617,0.403499 v 0.04747 l -0.213618,0.21362 h -0.04747 l -0.0712,-0.09494 v -0.02379 l 0.118677,-0.142411 -0.142412,0.118682 h -0.02374 l -0.09494,-0.118682 0.118677,-0.118672 -0.142413,0.118672 h -0.02374 l -0.09494,-0.09494 c 0.249956,-0.354813 0.357572,-0.08788 0.617118,0.09494 m -2.254853,-0.02374 c -0.08224,-0.03379 -0.168709,-0.106359 -0.260115,-0.06262 -0.191662,0.09171 0.01707,0.444759 -0.285796,0.299968 -0.104459,0.23164 -0.02224,0.220528 0.09494,0.403499 -0.492744,0.04813 -0.209558,-0.422274 -0.261088,-0.664581 0.28302,0.04603 0.488472,-0.405811 0.712058,0.02374 m 7.120585,-0.05795 c -0.429679,0.112217 -0.268256,0.78633 0.166147,0.686063 0.456976,-0.105448 0.287886,-0.804646 -0.166147,-0.686063 m -1.898727,0.02701 c -0.275401,0.07009 -0.229022,0.597513 0.07109,0.537271 0.292466,-0.05871 0.225105,-0.612654 -0.07109,-0.537271 m 1.922486,0.06498 c 0.321092,-0.08659 0.458993,0.399985 0.142294,0.496284 -0.320308,0.09741 -0.468108,-0.408417 -0.142294,-0.496284 m -1.898157,0.03318 c 0.168663,-0.03474 0.19197,0.306188 0.04429,0.342168 -0.177707,0.04336 -0.219053,-0.306205 -0.04429,-0.342168 m -5.124922,0.299563 c 0.181788,-0.04725 0.253349,0.228804 0.06817,0.265478 -0.171132,0.03385 -0.228002,-0.223946 -0.06817,-0.265478 m 6.524947,0.188956 c 0.218625,-0.04219 0.176496,0.240605 -3.91e-4,0.277057 -0.210935,0.04346 -0.179604,-0.242334 3.91e-4,-0.277057 m -1.067399,0.03151 c -0.321424,0.130283 0.014,0.523381 0.282783,0.40421 0.327213,-0.145123 -0.01493,-0.512781 -0.282783,-0.40421 m -4.792937,0.02096 c 0.153234,-0.05656 0.252424,0.176378 0.09095,0.230951 -0.148631,0.05025 -0.242979,-0.174811 -0.09095,-0.230951 m -5.485461,1.409336 v 0.02374 c 0.283827,0.134268 0.506416,0.454085 0.830734,0.49405 0.469793,0.05788 0.946184,-0.340767 1.305441,-0.588398 0.415344,-0.286273 0.786659,-0.430607 1.25797,-0.570238 -0.118652,0.164933 -0.366568,0.252261 -0.434284,0.451067 -0.08559,0.251283 0.210009,0.529479 0.283708,0.759434 0.06829,0.213092 0.08151,0.431952 0.269608,0.580822 0.239964,0.189907 0.584149,0.238231 0.87785,0.28008 0.550611,0.07845 1.109577,0.05983 1.661469,0.0194 0.345824,-0.02535 0.746879,-0.06797 1.044353,-0.262393 0.299563,-0.195772 0.263224,-0.569249 0.424292,-0.855284 0.09176,-0.16296 0.241933,-0.318683 0.180626,-0.522147 -0.0578,-0.191831 -0.312309,-0.304904 -0.438771,-0.450995 0.571996,0.136552 0.981929,0.385606 1.471587,0.71206 0.304002,0.202648 0.702874,0.494523 1.091824,0.446582 0.325054,-0.04008 0.547478,-0.359454 0.830734,-0.494056 -0.103082,-0.04324 -0.22247,-0.01529 -0.332294,-0.03479 -0.20144,-0.03557 -0.388143,-0.117154 -0.569646,-0.208495 -0.57729,-0.290491 -1.066427,-0.749957 -1.66147,-1.004591 -0.291279,-0.124636 -0.636984,-0.197483 -0.925652,-0.02257 -0.246704,0.149559 -0.401222,0.543781 -0.52671,0.795636 -0.05535,0.111101 -0.08488,0.223352 -0.007,0.33194 0.09022,0.125864 0.528799,0.274212 0.528799,0.422886 0,0.0863 -0.170822,0.1192 -0.23244,0.138954 -0.26149,0.08381 -0.534921,0.133696 -0.806999,0.167541 -0.666059,0.08289 -1.358702,0.07004 -2.017499,-0.06943 -0.121881,-0.02579 -0.563903,-0.08442 -0.608905,-0.218432 -0.02212,-0.06588 0.06518,-0.120261 0.110583,-0.147964 0.150909,-0.09217 0.346843,-0.152238 0.437252,-0.317839 0.09079,-0.166267 -0.03565,-0.334219 -0.119318,-0.473778 -0.1797,-0.299736 -0.265242,-0.626951 -0.650347,-0.711705 -0.442045,-0.09727 -0.875452,0.176918 -1.234235,0.401953 -0.645528,0.404855 -1.244749,0.92687 -2.041235,0.92687 m 10.32746,-1.338606 c 0.156771,-0.06505 0.389757,0.143812 0.184684,0.229072 -0.150173,0.0624 -0.386125,-0.145424 -0.184684,-0.229072 m -2.922051,0.626545 0.189882,-0.569649 c 0.113456,0.0319 0.260828,0.04613 0.350618,0.128626 0.148915,0.136803 0.06162,0.39953 -0.113359,0.46727 -0.138472,0.05364 -0.288527,-0.0076 -0.427141,-0.02624 M 21.42617,19.711372 c 0.06503,0.121973 0.177753,0.308128 0.159691,0.450967 -0.02295,0.18167 -0.271224,0.285634 -0.4157,0.173171 -0.109088,-0.0849 -0.166694,-0.285606 -0.218697,-0.41053 l 0.166147,-0.0712 c 0.01913,0.05614 0.241672,0.532214 0.284989,0.283321 0.01977,-0.113619 -0.0985,-0.263862 -0.118842,-0.378269 l 0.142412,-0.04747 m 4.889468,0.118665 -0.07121,0.261093 c 0.232606,0.0498 0.314587,-0.211385 0.07121,-0.261093 m 0.712058,0.807003 c -0.183948,-0.07664 -0.189882,-0.17276 -0.189882,-0.356025 l -0.118677,0.16614 -0.142411,-0.0712 0.261088,-0.498441 c 0.464642,0.147092 0.163299,0.422653 0.189882,0.759529 m -3.394145,-0.664586 v 0.522175 c -0.294793,-0.08001 -0.418952,0.342456 -0.166147,0.474707 l 0.09494,-0.09494 c 0.03228,0.155946 0.06715,0.330851 0.237352,0.379765 -0.05573,0.289241 0.377772,0.287201 0.30856,0 0.174288,-0.04942 0.215421,-0.216938 0.237352,-0.379765 l 0.118677,0.118677 h 0.02374 c 0.118415,-0.203886 0.134508,-0.593161 -0.213618,-0.498441 v -0.427233 l -0.640841,-0.09458 m -2.824498,0.0712 0.04747,0.142416 -0.166148,0.142406 0.213618,-0.118672 0.07121,0.142417 -0.166146,0.166145 0.213617,-0.118677 0.07121,0.142406 -0.332295,0.189885 c -0.183094,-0.298063 -0.410145,-0.542486 0.04747,-0.688326 m 6.076232,0.118682 h 0.09494 l -0.02374,-0.07121 -0.07121,0.07121 m -2.397264,0.68832 c -0.267116,-0.111339 -0.165268,0.215282 -0.33761,0.306856 -0.201393,0.107043 -0.09646,-0.233963 -0.204741,-0.222785 -0.09466,0.0097 0.02176,0.217204 -0.122687,0.232507 -0.225628,0.02384 -0.105575,-0.443653 -0.379314,-0.316578 -0.05221,-0.126269 -0.0082,-0.377268 0.18739,-0.279619 0.120671,0.06025 0.103296,0.247459 0.263581,0.208416 -0.04742,-0.100255 -0.15625,-0.213879 -0.131067,-0.332295 0.03577,-0.168286 0.214164,-0.270232 0.331084,-0.11761 0.05891,0.07688 0.07379,0.171153 0.03354,0.26002 -0.01932,0.04263 -0.109847,0.141422 -0.05609,0.188463 0.04087,0.03574 0.08189,-0.04552 0.09608,-0.07052 0.0869,-0.152739 0.328947,-0.228382 0.338845,0.02384 0.0016,0.04113 -0.0097,0.07975 -0.01902,0.119238 m 2.848234,-0.585212 c 0.38304,-0.05914 0.493385,0.524048 0.09494,0.576436 -0.372953,0.04903 -0.483488,-0.516434 -0.09494,-0.576436 m -5.316704,0.964977 c -0.434925,-0.167279 -0.39925,-0.496679 -0.07121,-0.744666 0.07538,-0.05698 0.161139,-0.153594 0.261089,-0.157669 0.149056,-0.0063 0.488377,0.138226 0.430866,0.331746 -0.08507,0.286217 -0.581515,0.218577 -0.620749,0.570589 m 3.750175,-0.925669 c 0.185776,0.242189 0.718776,0.456425 0.331273,0.79926 -0.05718,0.05058 -0.122569,0.08945 -0.18886,0.126409 -0.0756,-0.289547 -1.064671,-0.613411 -0.379765,-0.861614 0.0773,-0.02802 0.156985,-0.04747 0.237352,-0.06407 m -5.482851,0.0712 0.284824,0.498441 -0.142412,0.0712 -0.284823,-0.498435 0.142411,-0.07121 m 7.029158,0.07196 c -0.159525,0.09222 0.01365,0.301864 0.155086,0.208589 0.137047,-0.09039 -0.01745,-0.288168 -0.155086,-0.208589 m 0.684809,0.141656 c -0.04255,0.144717 -0.136121,0.3087 -0.235003,0.423342 -0.04056,0.04703 -0.131113,0.0826 -0.157911,-0.0022 -0.03923,-0.123357 0.197692,-0.379931 0.250503,-0.492911 l 0.142411,0.07121 m -8.164937,0.712061 -0.284822,-0.498447 c 0.110321,-0.06442 0.246253,-0.151238 0.379763,-0.133629 0.200872,0.02646 0.324129,0.269164 0.196932,0.437794 -0.06893,0.09136 -0.193063,0.142222 -0.291873,0.194282 m 8.687114,-0.427239 -0.04747,0.142412 c -0.05582,-0.01306 -0.14113,-0.05587 -0.195554,-0.02413 -0.155727,0.09067 -0.119982,0.31447 -0.350357,0.237781 l 0.213617,-0.37977 -0.142411,-0.04747 0.04747,-0.142406 0.474705,0.213608 m -8.758319,-0.02374 0.118677,0.237359 c 0.227621,-0.109728 0.08906,-0.286084 -0.118677,-0.237359 m -1.186764,0.04747 0.02374,0.02374 -0.02374,-0.02374 m 10.728347,0 0.02374,0.02374 -0.02374,-0.02374 m -5.341719,0.336471 c 0.101041,0.01384 0.08011,0.16834 -0.02001,0.15779 -0.09451,-0.0099 -0.076,-0.170959 0.02001,-0.15779 m -1.232953,0.518 -0.213618,-0.04747 c 0.117916,0.103058 0.211433,0.07709 0.213618,0.261088 l -0.189883,-0.04747 0.213617,0.09494 v 0.166145 c -0.438603,-0.03585 -0.403499,-0.31601 -0.403499,-0.688321 0.185182,0.03818 0.37713,0.03924 0.379765,0.261082 m 2.824498,-0.261082 c 0,0.169636 0.02774,0.849514 -0.27794,0.521725 -0.04303,-0.04613 -0.08277,-0.09552 -0.125559,-0.141955 l -0.02374,0.332285 h -0.166152 l 0.04747,-0.593378 c 0.172057,-0.0088 0.249409,0.121806 0.379764,0.213619 0,-0.16883 -0.02245,-0.286417 0.166146,-0.332296 m -2.254851,0.166151 v 0.166145 h -0.189882 l 0.02374,0.427227 -0.189883,-0.02374 v -0.450967 l -0.166147,-0.02374 v -0.166128 l 0.522177,0.07121 m 1.257971,0.0079 c 0.409243,-0.06832 0.501977,0.532809 0.09494,0.60131 -0.414821,0.0698 -0.504042,-0.532975 -0.09494,-0.60131 m -0.617118,0.229455 c 0.0652,-0.127337 0.138091,-0.205527 0.284824,-0.21362 v 0.617165 H 24.06078 v -0.308557 l -0.118677,0.142405 h -0.04747 l -0.09494,-0.166144 h -0.02374 v 0.332296 l -0.166148,-0.02379 v -0.569643 c 0.159787,-0.04208 0.231372,0.0845 0.332296,0.189879 m 0.61816,-0.05314 c -0.179794,0.06526 -0.08341,0.317199 0.0925,0.252044 0.163941,-0.06067 0.07432,-0.312563 -0.0925,-0.252044 z"
         id="path96691" />
      <text
         xml:space="preserve"
         style="font-style:normal;font-weight:normal;font-size:3.78685px;line-height:1;font-family:sans-serif;letter-spacing:0px;word-spacing:0px;fill:#000000;fill-opacity:1;stroke:none;stroke-width:0.0946714"
         x="23.98723"
         y="25.827276"
         id="text2096"><tspan
           sodipodi:role="line"
           id="tspan2094"
           style="text-align:center;text-anchor:middle;stroke-width:0.0946714"
           x="23.98723"
           y="25.827276">Companies</tspan><tspan
           sodipodi:role="line"
           style="text-align:center;text-anchor:middle;stroke-width:0.0946714"
           x="23.98723"
           y="29.614126"
           id="tspan2100">House</tspan></text>
    </g>
  </g>
</svg>
